<svg xmlns="http://www.w3.org/2000/svg" viewBox="0 0 400.9 523.07"><defs><style>.cls-1{fill:#f7ea99;}.cls-2{fill:#eaca00;}.cls-3{fill:#bd9955;}.cls-4{fill:#386b7d;}.cls-5{fill:#2a515e;}.cls-6{fill:#4d2a54;}.cls-7{fill:#331c38;}</style></defs><g id="logo_-_only" data-name="logo - only"><path class="cls-1" d="M378.09,356.06c-16.75,11.54-22.46,23.84-18.55,39.88,3.77,15.42,16.62,26.1,26.74,32.34a118,118,0,0,0,14.62,7.59V343.54A140.9,140.9,0,0,0,378.09,356.06Z"/><path class="cls-2" d="M374.64,447.13c-19.57-12.08-32.22-28-36.62-45.94-6.16-25.21,3.09-46.54,27.49-63.37,11.19-7.72,23.21-13.43,35.39-18.32V290.8c-1.79.58-3.59,1.18-5.37,1.74-24.24,7.73-47.13,15-65.46,33.35-.15.16-.31.31-.46.48a61.72,61.72,0,0,0-7.7,9.53c-10.72,16.35-14.85,39.15-11.33,62.56a103.44,103.44,0,0,0,7.19,25.45,95.5,95.5,0,0,0,6,11.71c20.94,34.79,60.31,47.59,77.14,51.63v-27.5A151.14,151.14,0,0,1,374.64,447.13Z"/><path class="cls-3" d="M304.79,447.05a118.56,118.56,0,0,1-7.39-14.42,125.84,125.84,0,0,1-8.72-30.87c-4.33-28.73,1-57.17,14.72-78a85.12,85.12,0,0,1,10.43-12.94l.6-.59c22.1-22.11,48.67-30.58,74.38-38.78,4.1-1.31,8.12-2.6,12.09-3.93v-70c-4.57,1.15-9.12,2.42-13.59,3.93-18.52,6.27-40.05,18.44-59.06,33.4-67.12,52.79-103.32,158.92-50.18,232.76,19.22,26.7,45.8,44.8,65.29,55.53h37.31a20.26,20.26,0,0,0,18.94-13.37C382,506.05,331.88,492,304.79,447.05Z"/><path class="cls-4" d="M231.29,142.21c1.92,6,3.59,12.32,5,18.66a223,223,0,0,1,4.22,28.57c3.5,41.92-10.37,73.94-25,107.86-3.81,8.79-7.75,17.89-11.38,27.2a264.48,264.48,0,0,0-9.29,28.43,222.46,222.46,0,0,0-6.49,35.72c-4.94,51.61,10.44,96.53,45.56,134.43h68.65C287.79,512,272.68,498,260.1,480.49c-60.56-84.15-20.73-204,54.45-263.12,20.92-16.44,44.85-29.92,65.66-37a200.62,200.62,0,0,1,20.69-5.74V142.4a20.29,20.29,0,0,0-20.23-20.24H260a20.29,20.29,0,0,1-20.24-20.23V20.23A20.3,20.3,0,0,0,219.51,0H20.24A20.07,20.07,0,0,0,8.58,3.76C155.54,12.64,211.47,80,231.29,142.21Z"/><path class="cls-5" d="M164.78,386.39a245.68,245.68,0,0,1,7.17-39.5,286.88,286.88,0,0,1,10.11-30.95c3.79-9.72,7.81-19,11.71-28,14-32.46,26.19-60.5,23.18-96.51a199.69,199.69,0,0,0-3.77-25.54c-1.21-5.62-2.69-11.15-4.39-16.48C184.65,73.64,113.22,32.22,0,27V121.6c19.14-4.49,39-8.29,58.61-8.68a146.28,146.28,0,0,1,19,.78A118.56,118.56,0,0,1,95.26,117c33.76,9,54.91,34.69,56.58,68.66a153.23,153.23,0,0,1-2.1,32.37c-3.15,18.62-8.28,37.31-13.24,55.39-9,32.78-18.29,66.65-15.88,100.68,4.25,59.9,29.24,111.31,54.53,149h28C167.29,475.91,161,426.4,164.78,386.39Z"/><path class="cls-6" d="M97.07,375.72c-2.7-38.05,7.14-73.91,16.66-108.59,5-18.33,9.78-35.64,12.73-53.09a129.77,129.77,0,0,0,1.8-27.25c-1.18-23.91-15.06-40.61-39.08-47A93,93,0,0,0,75,137.17a124.78,124.78,0,0,0-15.94-.65c-19.35.39-39,4.47-59.09,9.34v51.32c29.06-2.51,69.85,1,83.77,37.07a71.31,71.31,0,0,1,4.41,26.08,113.39,113.39,0,0,1-1.68,18.49c-3.29,19.54-9.66,37.94-15.8,55.73C63.15,356.4,56,377.05,54.31,399.26c-.35,4.4-.55,8.73-.64,13a230.27,230.27,0,0,0,1.11,27.61,249.65,249.65,0,0,0,23.94,83.2h68.07C122.93,484.3,101.22,434.06,97.07,375.72Z"/><path class="cls-7" d="M31.29,442.24a256.79,256.79,0,0,1-1.23-30.45q.15-7.08.7-14.34c1.95-25.24,9.92-48.31,17.63-70.6,6.1-17.67,11.86-34.35,14.83-52a91.09,91.09,0,0,0,1.35-14.65,47.9,47.9,0,0,0-2.82-17.48C53.06,220.26,22.39,218.8,0,221V502.84a20.3,20.3,0,0,0,20.24,20.24H52.67A271.41,271.41,0,0,1,31.29,442.24Z"/></g></svg>