<svg xmlns="http://www.w3.org/2000/svg" xmlns:xlink="http://www.w3.org/1999/xlink" viewBox="0 0 574.94 605.32"><defs><style>.cls-1{fill:#231f20;filter:url(#luminosity-invert);}.cls-2,.cls-4{isolation:isolate;}.cls-3{mask:url(#mask);}.cls-4{mix-blend-mode:color-dodge;}.cls-5{fill:#f7ea99;}.cls-6{fill:#eaca00;}.cls-7{fill:#bd9955;}.cls-8{fill:#386b7d;}.cls-9{fill:#2a515e;}.cls-10{fill:#4d2a54;}.cls-11{fill:#331c38;}.cls-12,.cls-14{fill:#fff;}.cls-12{opacity:0.8;}.cls-13{opacity:0.5;}.cls-15{fill:none;stroke:#231528;stroke-miterlimit:10;stroke-width:80px;}.cls-16{fill:#231528;}</style><filter id="luminosity-invert" filterUnits="userSpaceOnUse" color-interpolation-filters="sRGB"><feColorMatrix values="-1 0 0 0 1 0 -1 0 0 1 0 0 -1 0 1 0 0 0 1 0"/></filter><mask id="mask" x="21.36" y="36.52" width="532.13" height="532.13" maskUnits="userSpaceOnUse"><circle class="cls-1" cx="287.43" cy="302.59" r="266.07"/></mask></defs><g class="cls-2"><g id="web_api" data-name="web api"><g class="cls-3"><g class="cls-4"><path class="cls-5" d="M464.12,356.88c-18.26,12.58-24.48,26-20.22,43.47,4.11,16.82,18.12,28.46,29.15,35.26A129,129,0,0,0,489,443.89V343.24A154.1,154.1,0,0,0,464.12,356.88Z"/><path class="cls-6" d="M460.36,456.16C439,443,425.24,425.68,420.45,406.08c-6.72-27.48,3.36-50.73,30-69.07,12.2-8.42,25.3-14.64,38.58-20V285.75c-1.95.64-3.91,1.28-5.85,1.9C456.71,296.07,431.76,304,411.78,324l-.51.52a67.43,67.43,0,0,0-8.38,10.39c-11.7,17.82-16.19,42.68-12.35,68.2a113.26,113.26,0,0,0,7.83,27.74,104.24,104.24,0,0,0,6.54,12.76c22.82,37.93,65.73,51.88,84.08,56.28v-30A164.25,164.25,0,0,1,460.36,456.16Z"/><path class="cls-7" d="M384.22,456.07a129,129,0,0,1-8.05-15.71,137.85,137.85,0,0,1-9.51-33.66c-4.71-31.32,1.12-62.31,16-85a92.17,92.17,0,0,1,11.37-14.11c.2-.21.43-.42.65-.64,24.1-24.1,53.06-33.33,81.08-42.27,4.47-1.43,8.85-2.83,13.18-4.28V184c-5,1.25-9.94,2.63-14.81,4.28-20.19,6.83-43.66,20.1-64.39,36.41-73.16,57.54-112.62,173.23-54.69,253.72,20.94,29.1,49.92,48.83,71.16,60.52h40.67a22.09,22.09,0,0,0,20.66-14.57C468.35,520.38,413.75,505.11,384.22,456.07Z"/><path class="cls-8" d="M489,124v35.18a217.67,217.67,0,0,0-22.55,6.26c-22.7,7.67-48.78,22.36-71.58,40.28-81.95,64.47-125.37,195.09-59.35,286.81,13.71,19.06,30.19,34.35,46.2,46.42H306.88c-38.28-41.31-55-90.27-49.65-146.53a241.11,241.11,0,0,1,7.07-38.93,285.44,285.44,0,0,1,10.13-31c3.95-10.15,8.24-20.07,12.4-29.66,16-37,31.11-71.87,27.3-117.57a242.34,242.34,0,0,0-4.61-31.14c-1.5-6.91-3.32-13.75-5.42-20.33-9.29-29.16-25.87-59.37-54.5-85.11a275.44,275.44,0,0,1,63.72,0V79.88a22.12,22.12,0,0,0,22.07,22.05H466.93a21.9,21.9,0,0,1,5.46.69,22.18,22.18,0,0,1,13.84,10.73h0A21.87,21.87,0,0,1,489,124Z"/><path class="cls-9" d="M273.48,538.94H242.91c-27.57-41.11-54.8-97.15-59.44-162.45-2.63-37.09,7.5-74,17.31-109.73,5.41-19.71,11-40.09,14.43-60.38a166.81,166.81,0,0,0,2.29-35.29c-1.82-37-24.87-65-61.67-74.84a130,130,0,0,0-19.27-3.55c-2.93-.32-5.94-.55-9-.69,25.29-22.75,55.57-38.36,88.55-47,30.66,21.61,52,50.54,63.48,86.6,1.85,5.8,3.46,11.84,4.78,18a218,218,0,0,1,4.12,27.83c3.28,39.26-10,69.82-25.27,105.21-4.25,9.81-8.64,19.95-12.77,30.54a314.42,314.42,0,0,0-11,33.75A269.5,269.5,0,0,0,231.6,390C227.43,433.56,234.34,487.53,273.48,538.94Z"/><path class="cls-10" d="M157.8,378.31C154.86,336.84,165.58,297.75,176,260c5.48-20,10.66-38.85,13.88-57.87a140.74,140.74,0,0,0,1.95-29.71c-1.27-26.06-16.4-44.26-42.59-51.25a102.36,102.36,0,0,0-15.42-2.83,136,136,0,0,0-17.38-.71C95.31,118,73.87,122.45,52,127.76V183.7c31.68-2.74,76.14,1.14,91.31,40.4a77.59,77.59,0,0,1,4.81,28.44,123.22,123.22,0,0,1-1.83,20.15c-3.59,21.3-10.53,41.36-17.22,60.75-8.23,23.82-16,46.32-17.87,70.53-.38,4.8-.6,9.52-.7,14.19a251.18,251.18,0,0,0,1.22,30.1c3.61,35.86,14.5,66.67,26.09,90.68H212C186,496.67,162.32,441.91,157.8,378.31Z"/><path class="cls-11" d="M86.1,450.82a277.34,277.34,0,0,1-1.34-33.18q.15-7.72.76-15.64c2.12-27.51,10.81-52.65,19.21-77,6.65-19.25,12.93-37.43,16.18-56.63a100.22,100.22,0,0,0,1.47-16,52.49,52.49,0,0,0-3.08-19.05c-9.48-24.53-42.91-26.13-67.31-23.7V516.88a22.12,22.12,0,0,0,22.06,22.06H109.4A295.77,295.77,0,0,1,86.1,450.82Z"/></g></g><circle id="center_block_out" data-name="center block out" class="cls-12" cx="288.49" cy="303.09" r="97.5"/><g id="circles"><g id="outer_path" data-name="outer path" class="cls-13"><path class="cls-14" d="M280.52,605.32a298.63,298.63,0,0,1-66.38-7.52c-77.29-17.61-143.36-64.35-186-131.6l70.94-45a214,214,0,0,0,133.78,94.71A210.76,210.76,0,0,0,485.89,355.25a214,214,0,0,0-28.76-161.37l70.93-45c42.69,67.25,56.86,146.93,39.9,224.37s-63.17,143.66-130,186.11A292.71,292.71,0,0,1,280.52,605.32Z"/><path class="cls-14" d="M46.88,456.46C4.19,389.21-10,309.53,7,232.09S70.15,88.43,137,46,283.38-10.13,360.8,7.52s143.36,64.35,186.05,131.6l-70.94,45A214,214,0,0,0,342.13,89.43,210.76,210.76,0,0,0,89.05,250.07a214,214,0,0,0,28.76,161.37Z"/></g><g id="outer_stroke" data-name="outer stroke"><path class="cls-15" d="M501.14,167.85C428.86,54,279,19.83,166.11,91.5S20.33,313.29,92.61,427.15"/><path class="cls-15" d="M73.72,437.33c72.27,113.86,222.12,148,335,76.35S554.52,291.89,482.25,178"/></g><g id="inner"><path class="cls-15" d="M380.11,242.85c36.14,56.93,19.7,132-36.75,167.83S212,429.43,175.85,372.5"/><path class="cls-15" d="M399,232.68c-36.13-56.94-111.06-74-167.51-38.18S158.6,305.39,194.74,362.33"/></g></g><g id="state"><path class="cls-16" d="M253.32,255.12s0,.06,0,.06a.27.27,0,0,1-.12-.06s-3.6,94-3.16,94.25l75.7.41-1.92-76h0c.08,0,.12,0,.11-.14l-28.45.42c.09-.08,0-18.42,0-18.42l-.11,0c-.1,0-.11-.05,0-.15l-42.05-.41Z"/></g></g></g></svg>